Normalized EMG Linear Envelopes
nRows=207
nColumns=4

endheader
time	 med_gas_r	  soleus_r	 tib_ant_r	
3.02722	  0.002757	  0.002412	  0.001204	
3.06048	  0.002986	  0.002407	  0.001210	
3.09375	  0.003303	  0.002403	  0.001218	
3.12702	  0.003765	  0.002402	  0.001228	
3.16028	  0.004372	  0.002403	  0.001240	
3.19355	  0.005039	  0.002410	  0.001253	
3.22681	  0.005604	  0.002424	  0.001264	
3.26008	  0.005892	  0.002447	  0.001271	
3.29335	  0.005796	  0.002477	  0.001271	
3.32661	  0.005333	  0.002512	  0.001261	
3.35988	  0.004633	  0.002542	  0.001242	
3.39315	  0.003861	  0.002564	  0.001213	
3.42641	  0.003153	  0.002574	  0.001177	
3.45968	  0.002581	  0.002573	  0.001141	
3.49294	  0.002167	  0.002563	  0.001112	
3.52621	  0.001907	  0.002548	  0.001097	
3.55948	  0.001792	  0.002530	  0.001095	
3.59274	  0.001811	  0.002510	  0.001106	
3.62601	  0.001942	  0.002489	  0.001123	
3.65927	  0.002142	  0.002466	  0.001144	
3.69254	  0.002350	  0.002436	  0.001164	
3.72581	  0.002499	  0.002399	  0.001181	
3.75907	  0.002545	  0.002357	  0.001189	
3.79234	  0.002481	  0.002317	  0.001190	
3.8256	  0.002336	  0.002290	  0.001183	
3.85887	  0.002155	  0.002283	  0.001174	
3.89214	  0.001973	  0.002301	  0.001167	
3.9254	  0.001813	  0.002340	  0.001163	
3.95867	  0.001685	  0.002394	  0.001165	
3.99194	  0.001593	  0.002451	  0.001171	
4.0252	  0.001537	  0.002503	  0.001185	
4.05847	  0.001517	  0.002543	  0.001210	
4.09173	  0.001526	  0.002569	  0.001248	
4.125	  0.001554	  0.002583	  0.001299	
4.15827	  0.001592	  0.002585	  0.001358	
4.19153	  0.001630	  0.002574	  0.001423	
4.2248	  0.001663	  0.002547	  0.001490	
4.25806	  0.001685	  0.002508	  0.001554	
4.29133	  0.001693	  0.002461	  0.001610	
4.3246	  0.001686	  0.002418	  0.001649	
4.35786	  0.001666	  0.002386	  0.001662	
4.39113	  0.001642	  0.002370	  0.001642	
4.4244	  0.001619	  0.002369	  0.001591	
4.45766	  0.001602	  0.002382	  0.001519	
4.49093	  0.001590	  0.002406	  0.001441	
4.52419	  0.001586	  0.002438	  0.001374	
4.55746	  0.001589	  0.002473	  0.001327	
4.59073	  0.001601	  0.002500	  0.001302	
4.62399	  0.001620	  0.002507	  0.001293	
4.65726	  0.001642	  0.002490	  0.001289	
4.69052	  0.001662	  0.002449	  0.001274	
4.72379	  0.001675	  0.002392	  0.001235	
4.75706	  0.001682	  0.002327	  0.001160	
4.79032	  0.001686	  0.002264	  0.001043	
4.82359	  0.001691	  0.002208	  0.000881	
4.85685	  0.001700	  0.002164	  0.000681	
4.89012	  0.001716	  0.002132	  0.000472	
4.92339	  0.001742	  0.002115	  0.000310	
4.95665	  0.001788	  0.002119	  0.000292	
4.98992	  0.001861	  0.002167	  0.000542	
5.02319	  0.001959	  0.002295	  0.001202	
5.05645	  0.002069	  0.002549	  0.002424	
5.08972	  0.002174	  0.002981	  0.004370	
5.12298	  0.002269	  0.003640	  0.007213	
5.15625	  0.002368	  0.004565	  0.011109	
5.18952	  0.002503	  0.005771	  0.016116	
5.22278	  0.002700	  0.007232	  0.022089	
5.25605	  0.002964	  0.008859	  0.028617	
5.28931	  0.003273	  0.010516	  0.035117	
5.32258	  0.003597	  0.012064	  0.041096	
5.35585	  0.003910	  0.013437	  0.046476	
5.38911	  0.004211	  0.014702	  0.051721	
5.42238	  0.004517	  0.016040	  0.057652	
5.45565	  0.004849	  0.017668	  0.065015	
5.48891	  0.005220	  0.019743	  0.074100	
5.52218	  0.005629	  0.022300	  0.084609	
5.55544	  0.006052	  0.025228	  0.095808	
5.58871	  0.006455	  0.028272	  0.106806	
5.62198	  0.006797	  0.031090	  0.116805	
5.65524	  0.007056	  0.033367	  0.125245	
5.68851	  0.007241	  0.034951	  0.131863	
5.72177	  0.007390	  0.035931	  0.136755	
5.75504	  0.007539	  0.036562	  0.140419	
5.78831	  0.007697	  0.037105	  0.143722	
5.82157	  0.007847	  0.037712	  0.147709	
5.85484	  0.007974	  0.038423	  0.153311	
5.8881	  0.008091	  0.039239	  0.161119	
5.92137	  0.008239	  0.040170	  0.171417	
5.95464	  0.008472	  0.041244	  0.184493	
5.9879	  0.008836	  0.042523	  0.200957	
6.02117	  0.009375	  0.044154	  0.221665	
6.05444	  0.010130	  0.046350	  0.247133	
6.0877	  0.011109	  0.049273	  0.276818	
6.12097	  0.012267	  0.052895	  0.308922	
6.15423	  0.013501	  0.057007	  0.341017	
6.1875	  0.014701	  0.061364	  0.371051	
6.22077	  0.015812	  0.065832	  0.397953	
6.25403	  0.016847	  0.070400	  0.421568	
6.2873	  0.017859	  0.075098	  0.442397	
6.32056	  0.018906	  0.079969	  0.461560	
6.35383	  0.020027	  0.085122	  0.480770	
6.3871	  0.021253	  0.090749	  0.501792	
6.42036	  0.022608	  0.096996	  0.525466	
6.45363	  0.024100	  0.103781	  0.551069	
6.4869	  0.025689	  0.110697	  0.576652	
6.52016	  0.027268	  0.117109	  0.600085	
6.55343	  0.028674	  0.122367	  0.620061	
6.58669	  0.029741	  0.126018	  0.636558	
6.61996	  0.030390	  0.127948	  0.650740	
6.65323	  0.030673	  0.128398	  0.664408	
6.68649	  0.030740	  0.127851	  0.679122	
6.71976	  0.030746	  0.126807	  0.695403	
6.75302	  0.030771	  0.125636	  0.712530	
6.78629	  0.030827	  0.124630	  0.728918	
6.81956	  0.030928	  0.124160	  0.742434	
6.85282	  0.031128	  0.124681	  0.750430	
6.88609	  0.031482	  0.126472	  0.750178	
6.91935	  0.031980	  0.129387	  0.740270	
6.95262	  0.032542	  0.132917	  0.722065	
6.98589	  0.033062	  0.136514	  0.699602	
7.01915	  0.033460	  0.139808	  0.677672	
7.05242	  0.033678	  0.142524	  0.659543	
7.08569	  0.033676	  0.144316	  0.645872	
7.11895	  0.033448	  0.144862	  0.634994	
7.15222	  0.033061	  0.144182	  0.624065	
7.18548	  0.032645	  0.142747	  0.610731	
7.21875	  0.032314	  0.141162	  0.594889	
7.25202	  0.032099	  0.139671	  0.579482	
7.28528	  0.031954	  0.137970	  0.569332	
7.31855	  0.031839	  0.135504	  0.568493	
7.35181	  0.031783	  0.132023	  0.577932	
7.38508	  0.031874	  0.127905	  0.595187	
7.41835	  0.032195	  0.124032	  0.616131	
7.45161	  0.032761	  0.121289	  0.637379	
7.48488	  0.033507	  0.120068	  0.657523	
7.51815	  0.034307	  0.120131	  0.676487	
7.55141	  0.035014	  0.120911	  0.694016	
7.58468	  0.035512	  0.122021	  0.708949	
7.61794	  0.035762	  0.123530	  0.719914	
7.65121	  0.035827	  0.125817	  0.726568	
7.68448	  0.035817	  0.129114	  0.730017	
7.71774	  0.035791	  0.133118	  0.731903	
7.75101	  0.035672	  0.136989	  0.732878	
7.78427	  0.035295	  0.139780	  0.731870	
7.81754	  0.034557	  0.141008	  0.727046	
7.85081	  0.033549	  0.140916	  0.717914	
7.88407	  0.032554	  0.140246	  0.706628	
7.91734	  0.031894	  0.139771	  0.697114	
7.9506	  0.031755	  0.139977	  0.692638	
7.98387	  0.032114	  0.141065	  0.693856	
8.01714	  0.032803	  0.143051	  0.698719	
8.0504	  0.033622	  0.145761	  0.703903	
8.08367	  0.034419	  0.148721	  0.706429	
8.11694	  0.035086	  0.151175	  0.704520	
8.1502	  0.035515	  0.152303	  0.697624	
8.18347	  0.035559	  0.151534	  0.686095	
8.21673	  0.035068	  0.148745	  0.670885	
8.25	  0.033989	  0.144258	  0.653389	
8.28327	  0.032445	  0.138734	  0.635417	
8.31653	  0.030728	  0.133041	  0.619275	
8.3498	  0.029198	  0.128147	  0.607777	
8.38306	  0.028160	  0.125005	  0.603931	
8.41633	  0.027785	  0.124366	  0.610158	
8.4496	  0.028107	  0.126521	  0.627268	
8.48286	  0.029041	  0.131063	  0.653835	
8.51613	  0.030431	  0.136945	  0.686543	
8.5494	  0.032118	  0.142934	  0.721432	
8.58266	  0.034001	  0.148239	  0.755190	
8.61593	  0.036043	  0.152809	  0.785399	
8.64919	  0.038193	  0.157037	  0.809574	
8.68246	  0.040313	  0.161173	  0.824242	
8.71573	  0.042187	  0.165022	  0.825581	
8.74899	  0.043620	  0.168070	  0.811575	
8.78226	  0.044508	  0.169716	  0.783758	
8.81552	  0.044809	  0.169311	  0.746738	
8.84879	  0.044478	  0.166167	  0.705906	
8.88206	  0.043468	  0.159863	  0.665397	
8.91532	  0.041803	  0.150723	  0.627748	
8.94859	  0.039648	  0.140020	  0.594745	
8.98185	  0.037297	  0.129568	  0.568000	
9.01512	  0.035074	  0.121005	  0.548601	
9.04839	  0.033261	  0.115299	  0.536604	
9.08165	  0.032076	  0.112782	  0.531408	
9.11492	  0.031688	  0.113449	  0.532837	
9.14819	  0.032194	  0.117112	  0.541481	
9.18145	  0.033544	  0.123265	  0.557384	
9.21472	  0.035497	  0.130931	  0.578032	
9.24798	  0.037653	  0.138786	  0.597777	
9.28125	  0.039558	  0.145551	  0.609776	
9.31452	  0.040816	  0.150352	  0.609251	
9.34778	  0.041149	  0.152813	  0.595776	
9.38105	  0.040441	  0.152896	  0.573210	
9.41431	  0.038747	  0.150701	  0.547716	
9.44758	  0.036270	  0.146361	  0.525292	
9.48085	  0.033311	  0.140086	  0.509967	
9.51411	  0.030201	  0.132297	  0.502867	
9.54738	  0.027257	  0.123724	  0.501850	
9.58065	  0.024779	  0.115392	  0.501763	
9.61391	  0.023072	  0.108536	  0.495723	
9.64718	  0.022504	  0.104679	  0.477302	
9.68044	  0.023563	  0.105893	  0.442539	
9.71371	  0.026884	  0.114904	  0.390790	
9.74698	  0.033105	  0.134482	  0.324432	
9.78024	  0.042561	  0.166083	  0.248029	
9.81351	  0.054978	  0.208641	  0.167216	
9.84677	  0.069429	  0.258630	  0.087340	
9.88004	  0.084616	  0.311360	  0.012407	
